<svg width="1280" height="720" xmlns="http://www.w3.org/2000/svg" xmlns:xlink="http://www.w3.org/1999/xlink" overflow="hidden"><defs><filter id="fx0" x="-10%" y="-10%" width="120%" height="120%" filterUnits="userSpaceOnUse" primitiveUnits="userSpaceOnUse"><feComponentTransfer color-interpolation-filters="sRGB"><feFuncR type="discrete" tableValues="0 0"/><feFuncG type="discrete" tableValues="0 0"/><feFuncB type="discrete" tableValues="0 0"/><feFuncA type="linear" slope="0.4" intercept="0"/></feComponentTransfer><feGaussianBlur stdDeviation="1.77778 1.77778"/></filter><filter id="fx1" x="-10%" y="-10%" width="120%" height="120%" filterUnits="userSpaceOnUse" primitiveUnits="userSpaceOnUse"><feComponentTransfer color-interpolation-filters="sRGB"><feFuncR type="discrete" tableValues="0 0"/><feFuncG type="discrete" tableValues="0 0"/><feFuncB type="discrete" tableValues="0 0"/><feFuncA type="linear" slope="0.4" intercept="0"/></feComponentTransfer><feGaussianBlur stdDeviation="1.77778 1.77778"/></filter><filter id="fx2" x="-10%" y="-10%" width="120%" height="120%" filterUnits="userSpaceOnUse" primitiveUnits="userSpaceOnUse"><feComponentTransfer color-interpolation-filters="sRGB"><feFuncR type="discrete" tableValues="0 0"/><feFuncG type="discrete" tableValues="0 0"/><feFuncB type="discrete" tableValues="0 0"/><feFuncA type="linear" slope="0.4" intercept="0"/></feComponentTransfer><feGaussianBlur stdDeviation="1.77778 1.77778"/></filter><filter id="fx3" x="-10%" y="-10%" width="120%" height="120%" filterUnits="userSpaceOnUse" primitiveUnits="userSpaceOnUse"><feComponentTransfer color-interpolation-filters="sRGB"><feFuncR type="discrete" tableValues="0 0"/><feFuncG type="discrete" tableValues="0 0"/><feFuncB type="discrete" tableValues="0 0"/><feFuncA type="linear" slope="0.4" intercept="0"/></feComponentTransfer><feGaussianBlur stdDeviation="1.77778 1.77778"/></filter><linearGradient x1="183.269" y1="230.852" x2="252.731" y2="66.1475" gradientUnits="userSpaceOnUse" spreadMethod="reflect" id="fill4"><stop offset="0"/><stop offset="0.61"/><stop offset="1" stop-color="#3272D2"/></linearGradient><linearGradient x1="767.822" y1="586.746" x2="1320.18" y2="202.254" gradientUnits="userSpaceOnUse" spreadMethod="reflect" id="fill5"><stop offset="0"/><stop offset="0.61"/><stop offset="1" stop-color="#3272D2"/></linearGradient><linearGradient x1="428.269" y1="230.852" x2="497.731" y2="66.1475" gradientUnits="userSpaceOnUse" spreadMethod="reflect" id="fill6"><stop offset="0"/><stop offset="0.61"/><stop offset="1" stop-color="#FC129D"/></linearGradient><linearGradient x1="673.663" y1="230.744" x2="743.337" y2="66.2562" gradientUnits="userSpaceOnUse" spreadMethod="reflect" id="fill7"><stop offset="0"/><stop offset="0.61"/><stop offset="1" stop-color="#1270FC"/></linearGradient></defs><g><rect x="0" y="0" width="1280" height="720" fill="#FFFFFF"/><path d="M10 39.2412C10 23.644 22.644 11 38.2411 11L1241.76 11C1257.36 11 1270 23.644 1270 39.2412L1270 680.759C1270 696.356 1257.36 709 1241.76 709L38.2411 709C22.644 709 10 696.356 10 680.759Z" fill="#163768" fill-rule="evenodd"/><g filter="url(#fx0)" transform="translate(6 7)"><g><path d="M6.82843 33.3347C6.82843 18.6957 18.6957 6.82843 33.3347 6.82843L53.3221 6.82843C67.9611 6.82843 79.8284 18.6957 79.8284 33.3347L79.8284 678.322C79.8284 692.961 67.9611 704.828 53.3221 704.828L33.3347 704.828C18.6957 704.828 6.82843 692.961 6.82843 678.322Z" fill-rule="evenodd"/></g></g><path d="M10 37.5063C10 22.8673 21.8673 11 36.5063 11L56.4937 11C71.1327 11 83 22.8673 83 37.5063L83 682.494C83 697.133 71.1327 709 56.4937 709L36.5063 709C21.8673 709 10 697.133 10 682.494Z" fill-rule="evenodd"/><path d="M103 113.458C103 106.025 109.025 100 116.458 100L319.542 100C326.975 100 333 106.025 333 113.458L333 183.542C333 190.975 326.975 197 319.542 197L116.458 197C109.025 197 103 190.975 103 183.542Z" fill="url(#fill4)" fill-rule="evenodd"/><path d="M839 127.212C839 112.183 851.183 100 866.212 100L1221.79 100C1236.82 100 1249 112.183 1249 127.212L1249 661.788C1249 676.817 1236.82 689 1221.79 689L866.212 689C851.183 689 839 676.817 839 661.788Z" fill="url(#fill5)" fill-rule="evenodd"/><path d="M348 113.458C348 106.025 354.025 100 361.458 100L564.542 100C571.975 100 578 106.025 578 113.458L578 183.542C578 190.975 571.975 197 564.542 197L361.458 197C354.025 197 348 190.975 348 183.542Z" fill="url(#fill6)" fill-rule="evenodd"/><path d="M594 113.458C594 106.025 600.025 100 607.458 100L809.542 100C816.975 100 823 106.025 823 113.458L823 183.542C823 190.975 816.975 197 809.542 197L607.458 197C600.025 197 594 190.975 594 183.542Z" fill="url(#fill7)" fill-rule="evenodd"/><g filter="url(#fx1)" transform="translate(101 207)"><g><path d="M6.82843 16.2153C6.82843 11.0311 11.0311 6.82843 16.2153 6.82843L348.442 6.82843C353.626 6.82843 357.828 11.0311 357.828 16.2153L357.828 229.442C357.828 234.626 353.626 238.828 348.442 238.828L16.2153 238.828C11.0311 238.828 6.82843 234.626 6.82843 229.442Z" fill="#205099" fill-rule="evenodd"/></g></g><path d="M105 220.387C105 215.203 109.203 211 114.387 211L446.613 211C451.797 211 456 215.203 456 220.387L456 433.613C456 438.797 451.797 443 446.613 443L114.387 443C109.203 443 105 438.797 105 433.613Z" fill="#205099" fill-rule="evenodd"/><g filter="url(#fx2)" transform="translate(463 207)"><g><path d="M6.82843 16.2151C6.82843 11.031 11.031 6.82843 16.2151 6.82843L349.442 6.82843C354.626 6.82843 358.828 11.031 358.828 16.2151L358.828 229.442C358.828 234.626 354.626 238.828 349.442 238.828L16.2151 238.828C11.031 238.828 6.82843 234.626 6.82843 229.442Z" fill="#205099" fill-rule="evenodd"/></g></g><path d="M467 220.387C467 215.203 471.203 211 476.387 211L809.613 211C814.797 211 819 215.203 819 220.387L819 433.613C819 438.797 814.797 443 809.613 443L476.387 443C471.203 443 467 438.797 467 433.613Z" fill="#205099" fill-rule="evenodd"/><g filter="url(#fx3)" transform="translate(99 453)"><g><path d="M6.82843 16.2154C6.82843 11.0311 11.0311 6.82843 16.2154 6.82843L713.441 6.82843C718.626 6.82843 722.828 11.0311 722.828 16.2154L722.828 229.441C722.828 234.626 718.626 238.828 713.441 238.828L16.2154 238.828C11.0311 238.828 6.82843 234.626 6.82843 229.441Z" fill="#205099" fill-rule="evenodd"/></g></g><path d="M103 466.387C103 461.203 107.203 457 112.387 457L809.613 457C814.797 457 819 461.203 819 466.387L819 679.613C819 684.797 814.797 689 809.613 689L112.387 689C107.203 689 103 684.797 103 679.613Z" fill="#205099" fill-rule="evenodd"/></g></svg>